<svg version="1.1" xmlns="http://www.w3.org/2000/svg" width="768" height="768" viewBox="0 0 768 768">
  <g>
    <path fill="currentColor" d="M384 0c159.050 0 288 128.951 288 288 0 113.139-65.26 210.797-160 257.879v94.121c0 53.020-42.98 96-96 96h-64c-53.019 0-96-42.98-96-96v-94.121c-94.741-47.081-160-144.74-160-257.879 0-159.049 128.951-288 288-288zM448 544v-18.784c0-13.034 7.907-24.768 19.988-29.661 82.156-33.271 140.013-113.642 140.013-207.555 0-123.703-100.298-224-224-224s-224 100.297-224 224c0 93.913 57.855 174.285 140.012 207.555 12.082 4.893 19.988 16.627 19.988 29.661v18.784h128zM320 608v32c0 17.674 14.326 32 32 32h64c17.674 0 32-14.327 32-32v-32h-128z"></path>
    <path fill="currentColor" d="M384 192c-53.014 0-96 42.985-96 96 0 17.673-14.327 32-32 32s-32-14.327-32-32c0-88.361 71.639-160 160-160 17.674 0 32 14.327 32 32s-14.326 32-32 32z"></path>
   </g>
</svg>
