<svg version="1.1" xmlns="http://www.w3.org/2000/svg" width="768" height="768" viewBox="0 0 768 768">
  <path fill="currentColor" d="M352 128c-123.712 0-224 100.288-224 224s100.288 224 224 224c123.712 0 224-100.288 224-224s-100.288-224-224-224zM64 352c0-159.058 128.942-288 288-288 159.059 0 288 128.942 288 288 0 159.059-128.941 288-288 288-159.058 0-288-128.941-288-288z"></path>
  <path fill="currentColor" d="M510.173 510.173c12.496-12.496 32.759-12.496 45.254 0l139.2 139.2c12.496 12.496 12.496 32.759 0 45.254s-32.759 12.496-45.254 0l-139.2-139.2c-12.496-12.496-12.496-32.759 0-45.254z"></path>
  <path fill="currentColor" d="M224 352c0-17.674 14.327-32 32-32h192c17.674 0 32 14.327 32 32s-14.326 32-32 32h-192c-17.673 0-32-14.327-32-32z"></path>
</svg>
